ISO-10303-21;
HEADER;
FILE_DESCRIPTION(('FreeCAD Model'),'2;1');
FILE_NAME('Open CASCADE Shape Model','2025-06-27T23:55:23',(''),(''),
  'Open CASCADE STEP processor 7.8','FreeCAD','Unknown');
FILE_SCHEMA(('AUTOMOTIVE_DESIGN { 1 0 10303 214 1 1 1 1 }'));
ENDSEC;
DATA;
#1 = APPLICATION_PROTOCOL_DEFINITION('international standard',
  'automotive_design',2000,#2);
#2 = APPLICATION_CONTEXT(
  'core data for automotive mechanical design processes');
#3 = SHAPE_DEFINITION_REPRESENTATION(#4,#10);
#4 = PRODUCT_DEFINITION_SHAPE('','',#5);
#5 = PRODUCT_DEFINITION('design','',#6,#9);
#6 = PRODUCT_DEFINITION_FORMATION('','',#7);
#7 = PRODUCT('Body','Body','',(#8));
#8 = PRODUCT_CONTEXT('',#2,'mechanical');
#9 = PRODUCT_DEFINITION_CONTEXT('part definition',#2,'design');
#10 = ADVANCED_BREP_SHAPE_REPRESENTATION('',(#11,#15),#723);
#11 = AXIS2_PLACEMENT_3D('',#12,#13,#14);
#12 = CARTESIAN_POINT('',(0.,0.,0.));
#13 = DIRECTION('',(0.,0.,1.));
#14 = DIRECTION('',(1.,0.,-0.));
#15 = MANIFOLD_SOLID_BREP('',#16);
#16 = CLOSED_SHELL('',(#17,#44,#215,#246,#270,#294,#318,#342,#366,#390,
    #414,#438,#462,#486,#510,#534,#558,#582,#606,#630,#654,#678,#695));
#17 = ADVANCED_FACE('',(#18),#39,.T.);
#18 = FACE_BOUND('',#19,.F.);
#19 = EDGE_LOOP('',(#20,#31,#32));
#20 = ORIENTED_EDGE('',*,*,#21,.F.);
#21 = EDGE_CURVE('',#22,#24,#26,.T.);
#22 = VERTEX_POINT('',#23);
#23 = CARTESIAN_POINT('',(0.,1.E-15,0.6));
#24 = VERTEX_POINT('',#25);
#25 = CARTESIAN_POINT('',(0.,-3.,0.5));
#26 = CIRCLE('',#27,45.049999999999);
#27 = AXIS2_PLACEMENT_3D('',#28,#29,#30);
#28 = CARTESIAN_POINT('',(0.,0.,-44.44999999999));
#29 = DIRECTION('',(1.,0.,0.));
#30 = DIRECTION('',(0.,1.,0.));
#31 = ORIENTED_EDGE('',*,*,#21,.T.);
#32 = ORIENTED_EDGE('',*,*,#33,.F.);
#33 = EDGE_CURVE('',#24,#24,#34,.T.);
#34 = CIRCLE('',#35,3.);
#35 = AXIS2_PLACEMENT_3D('',#36,#37,#38);
#36 = CARTESIAN_POINT('',(0.,0.,0.5));
#37 = DIRECTION('',(-0.,0.,1.));
#38 = DIRECTION('',(0.,-1.,0.));
#39 = SPHERICAL_SURFACE('',#40,45.049999999999);
#40 = AXIS2_PLACEMENT_3D('',#41,#42,#43);
#41 = CARTESIAN_POINT('',(0.,0.,-44.44999999999));
#42 = DIRECTION('',(-0.,-0.,-1.));
#43 = DIRECTION('',(0.,-1.,0.));
#44 = ADVANCED_FACE('',(#45,#207),#210,.T.);
#45 = FACE_BOUND('',#46,.T.);
#46 = EDGE_LOOP('',(#47,#57,#65,#73,#81,#89,#97,#105,#113,#121,#129,#137
    ,#145,#153,#161,#169,#177,#185,#193,#201));
#47 = ORIENTED_EDGE('',*,*,#48,.T.);
#48 = EDGE_CURVE('',#49,#51,#53,.T.);
#49 = VERTEX_POINT('',#50);
#50 = CARTESIAN_POINT('',(3.75,-1.25,0.5));
#51 = VERTEX_POINT('',#52);
#52 = CARTESIAN_POINT('',(3.75,1.25,0.5));
#53 = LINE('',#54,#55);
#54 = CARTESIAN_POINT('',(3.75,0.,0.5));
#55 = VECTOR('',#56,1.);
#56 = DIRECTION('',(0.,1.,0.));
#57 = ORIENTED_EDGE('',*,*,#58,.T.);
#58 = EDGE_CURVE('',#51,#59,#61,.T.);
#59 = VERTEX_POINT('',#60);
#60 = CARTESIAN_POINT('',(3.1,1.9,0.5));
#61 = LINE('',#62,#63);
#62 = CARTESIAN_POINT('',(3.75,1.25,0.5));
#63 = VECTOR('',#64,1.);
#64 = DIRECTION('',(-0.707106781187,0.707106781187,0.));
#65 = ORIENTED_EDGE('',*,*,#66,.T.);
#66 = EDGE_CURVE('',#59,#67,#69,.T.);
#67 = VERTEX_POINT('',#68);
#68 = CARTESIAN_POINT('',(3.1,3.365,0.5));
#69 = LINE('',#70,#71);
#70 = CARTESIAN_POINT('',(3.1,1.9,0.5));
#71 = VECTOR('',#72,1.);
#72 = DIRECTION('',(0.,1.,0.));
#73 = ORIENTED_EDGE('',*,*,#74,.T.);
#74 = EDGE_CURVE('',#67,#75,#77,.T.);
#75 = VERTEX_POINT('',#76);
#76 = CARTESIAN_POINT('',(1.625,3.365,0.5));
#77 = LINE('',#78,#79);
#78 = CARTESIAN_POINT('',(3.1,3.365,0.5));
#79 = VECTOR('',#80,1.);
#80 = DIRECTION('',(-1.,0.,0.));
#81 = ORIENTED_EDGE('',*,*,#82,.T.);
#82 = EDGE_CURVE('',#75,#83,#85,.T.);
#83 = VERTEX_POINT('',#84);
#84 = CARTESIAN_POINT('',(1.625,3.5,0.5));
#85 = LINE('',#86,#87);
#86 = CARTESIAN_POINT('',(1.625,3.365,0.5));
#87 = VECTOR('',#88,1.);
#88 = DIRECTION('',(0.,1.,0.));
#89 = ORIENTED_EDGE('',*,*,#90,.T.);
#90 = EDGE_CURVE('',#83,#91,#93,.T.);
#91 = VERTEX_POINT('',#92);
#92 = CARTESIAN_POINT('',(-1.625,3.5,0.5));
#93 = LINE('',#94,#95);
#94 = CARTESIAN_POINT('',(1.625,3.5,0.5));
#95 = VECTOR('',#96,1.);
#96 = DIRECTION('',(-1.,0.,0.));
#97 = ORIENTED_EDGE('',*,*,#98,.F.);
#98 = EDGE_CURVE('',#99,#91,#101,.T.);
#99 = VERTEX_POINT('',#100);
#100 = CARTESIAN_POINT('',(-1.625,3.365,0.5));
#101 = LINE('',#102,#103);
#102 = CARTESIAN_POINT('',(-1.625,3.365,0.5));
#103 = VECTOR('',#104,1.);
#104 = DIRECTION('',(0.,1.,0.));
#105 = ORIENTED_EDGE('',*,*,#106,.F.);
#106 = EDGE_CURVE('',#107,#99,#109,.T.);
#107 = VERTEX_POINT('',#108);
#108 = CARTESIAN_POINT('',(-3.1,3.365,0.5));
#109 = LINE('',#110,#111);
#110 = CARTESIAN_POINT('',(-3.1,3.365,0.5));
#111 = VECTOR('',#112,1.);
#112 = DIRECTION('',(1.,0.,0.));
#113 = ORIENTED_EDGE('',*,*,#114,.F.);
#114 = EDGE_CURVE('',#115,#107,#117,.T.);
#115 = VERTEX_POINT('',#116);
#116 = CARTESIAN_POINT('',(-3.1,1.9,0.5));
#117 = LINE('',#118,#119);
#118 = CARTESIAN_POINT('',(-3.1,1.9,0.5));
#119 = VECTOR('',#120,1.);
#120 = DIRECTION('',(0.,1.,0.));
#121 = ORIENTED_EDGE('',*,*,#122,.F.);
#122 = EDGE_CURVE('',#123,#115,#125,.T.);
#123 = VERTEX_POINT('',#124);
#124 = CARTESIAN_POINT('',(-3.75,1.25,0.5));
#125 = LINE('',#126,#127);
#126 = CARTESIAN_POINT('',(-3.75,1.25,0.5));
#127 = VECTOR('',#128,1.);
#128 = DIRECTION('',(0.707106781187,0.707106781187,0.));
#129 = ORIENTED_EDGE('',*,*,#130,.F.);
#130 = EDGE_CURVE('',#131,#123,#133,.T.);
#131 = VERTEX_POINT('',#132);
#132 = CARTESIAN_POINT('',(-3.75,-1.25,0.5));
#133 = LINE('',#134,#135);
#134 = CARTESIAN_POINT('',(-3.75,0.,0.5));
#135 = VECTOR('',#136,1.);
#136 = DIRECTION('',(0.,1.,0.));
#137 = ORIENTED_EDGE('',*,*,#138,.T.);
#138 = EDGE_CURVE('',#131,#139,#141,.T.);
#139 = VERTEX_POINT('',#140);
#140 = CARTESIAN_POINT('',(-3.1,-1.9,0.5));
#141 = LINE('',#142,#143);
#142 = CARTESIAN_POINT('',(-3.75,-1.25,0.5));
#143 = VECTOR('',#144,1.);
#144 = DIRECTION('',(0.707106781187,-0.707106781187,0.));
#145 = ORIENTED_EDGE('',*,*,#146,.T.);
#146 = EDGE_CURVE('',#139,#147,#149,.T.);
#147 = VERTEX_POINT('',#148);
#148 = CARTESIAN_POINT('',(-3.1,-3.365,0.5));
#149 = LINE('',#150,#151);
#150 = CARTESIAN_POINT('',(-3.1,-1.9,0.5));
#151 = VECTOR('',#152,1.);
#152 = DIRECTION('',(0.,-1.,0.));
#153 = ORIENTED_EDGE('',*,*,#154,.T.);
#154 = EDGE_CURVE('',#147,#155,#157,.T.);
#155 = VERTEX_POINT('',#156);
#156 = CARTESIAN_POINT('',(-1.625,-3.365,0.5));
#157 = LINE('',#158,#159);
#158 = CARTESIAN_POINT('',(-3.1,-3.365,0.5));
#159 = VECTOR('',#160,1.);
#160 = DIRECTION('',(1.,0.,0.));
#161 = ORIENTED_EDGE('',*,*,#162,.T.);
#162 = EDGE_CURVE('',#155,#163,#165,.T.);
#163 = VERTEX_POINT('',#164);
#164 = CARTESIAN_POINT('',(-1.625,-3.5,0.5));
#165 = LINE('',#166,#167);
#166 = CARTESIAN_POINT('',(-1.625,-3.365,0.5));
#167 = VECTOR('',#168,1.);
#168 = DIRECTION('',(0.,-1.,0.));
#169 = ORIENTED_EDGE('',*,*,#170,.T.);
#170 = EDGE_CURVE('',#163,#171,#173,.T.);
#171 = VERTEX_POINT('',#172);
#172 = CARTESIAN_POINT('',(1.625,-3.5,0.5));
#173 = LINE('',#174,#175);
#174 = CARTESIAN_POINT('',(-1.625,-3.5,0.5));
#175 = VECTOR('',#176,1.);
#176 = DIRECTION('',(1.,0.,0.));
#177 = ORIENTED_EDGE('',*,*,#178,.F.);
#178 = EDGE_CURVE('',#179,#171,#181,.T.);
#179 = VERTEX_POINT('',#180);
#180 = CARTESIAN_POINT('',(1.625,-3.365,0.5));
#181 = LINE('',#182,#183);
#182 = CARTESIAN_POINT('',(1.625,-3.365,0.5));
#183 = VECTOR('',#184,1.);
#184 = DIRECTION('',(-0.,-1.,-0.));
#185 = ORIENTED_EDGE('',*,*,#186,.F.);
#186 = EDGE_CURVE('',#187,#179,#189,.T.);
#187 = VERTEX_POINT('',#188);
#188 = CARTESIAN_POINT('',(3.1,-3.365,0.5));
#189 = LINE('',#190,#191);
#190 = CARTESIAN_POINT('',(3.1,-3.365,0.5));
#191 = VECTOR('',#192,1.);
#192 = DIRECTION('',(-1.,-0.,-0.));
#193 = ORIENTED_EDGE('',*,*,#194,.F.);
#194 = EDGE_CURVE('',#195,#187,#197,.T.);
#195 = VERTEX_POINT('',#196);
#196 = CARTESIAN_POINT('',(3.1,-1.9,0.5));
#197 = LINE('',#198,#199);
#198 = CARTESIAN_POINT('',(3.1,-1.9,0.5));
#199 = VECTOR('',#200,1.);
#200 = DIRECTION('',(-0.,-1.,-0.));
#201 = ORIENTED_EDGE('',*,*,#202,.F.);
#202 = EDGE_CURVE('',#49,#195,#203,.T.);
#203 = LINE('',#204,#205);
#204 = CARTESIAN_POINT('',(3.75,-1.25,0.5));
#205 = VECTOR('',#206,1.);
#206 = DIRECTION('',(-0.707106781187,-0.707106781187,-0.));
#207 = FACE_BOUND('',#208,.T.);
#208 = EDGE_LOOP('',(#209));
#209 = ORIENTED_EDGE('',*,*,#33,.F.);
#210 = PLANE('',#211);
#211 = AXIS2_PLACEMENT_3D('',#212,#213,#214);
#212 = CARTESIAN_POINT('',(1.E-16,6.E-17,0.5));
#213 = DIRECTION('',(0.,0.,1.));
#214 = DIRECTION('',(1.,0.,0.));
#215 = ADVANCED_FACE('',(#216),#241,.T.);
#216 = FACE_BOUND('',#217,.T.);
#217 = EDGE_LOOP('',(#218,#226,#227,#235));
#218 = ORIENTED_EDGE('',*,*,#219,.T.);
#219 = EDGE_CURVE('',#220,#51,#222,.T.);
#220 = VERTEX_POINT('',#221);
#221 = CARTESIAN_POINT('',(3.75,1.25,0.));
#222 = LINE('',#223,#224);
#223 = CARTESIAN_POINT('',(3.75,1.25,0.));
#224 = VECTOR('',#225,1.);
#225 = DIRECTION('',(0.,0.,1.));
#226 = ORIENTED_EDGE('',*,*,#48,.F.);
#227 = ORIENTED_EDGE('',*,*,#228,.F.);
#228 = EDGE_CURVE('',#229,#49,#231,.T.);
#229 = VERTEX_POINT('',#230);
#230 = CARTESIAN_POINT('',(3.75,-1.25,0.));
#231 = LINE('',#232,#233);
#232 = CARTESIAN_POINT('',(3.75,-1.25,0.));
#233 = VECTOR('',#234,1.);
#234 = DIRECTION('',(0.,0.,1.));
#235 = ORIENTED_EDGE('',*,*,#236,.F.);
#236 = EDGE_CURVE('',#220,#229,#237,.T.);
#237 = LINE('',#238,#239);
#238 = CARTESIAN_POINT('',(3.75,0.,0.));
#239 = VECTOR('',#240,1.);
#240 = DIRECTION('',(-0.,-1.,-0.));
#241 = PLANE('',#242);
#242 = AXIS2_PLACEMENT_3D('',#243,#244,#245);
#243 = CARTESIAN_POINT('',(3.75,0.,0.25));
#244 = DIRECTION('',(1.,0.,0.));
#245 = DIRECTION('',(0.,0.,1.));
#246 = ADVANCED_FACE('',(#247),#265,.F.);
#247 = FACE_BOUND('',#248,.T.);
#248 = EDGE_LOOP('',(#249,#250,#251,#259));
#249 = ORIENTED_EDGE('',*,*,#228,.T.);
#250 = ORIENTED_EDGE('',*,*,#202,.T.);
#251 = ORIENTED_EDGE('',*,*,#252,.F.);
#252 = EDGE_CURVE('',#253,#195,#255,.T.);
#253 = VERTEX_POINT('',#254);
#254 = CARTESIAN_POINT('',(3.1,-1.9,0.));
#255 = LINE('',#256,#257);
#256 = CARTESIAN_POINT('',(3.1,-1.9,0.));
#257 = VECTOR('',#258,1.);
#258 = DIRECTION('',(0.,0.,1.));
#259 = ORIENTED_EDGE('',*,*,#260,.F.);
#260 = EDGE_CURVE('',#229,#253,#261,.T.);
#261 = LINE('',#262,#263);
#262 = CARTESIAN_POINT('',(3.75,-1.25,0.));
#263 = VECTOR('',#264,1.);
#264 = DIRECTION('',(-0.707106781187,-0.707106781187,-0.));
#265 = PLANE('',#266);
#266 = AXIS2_PLACEMENT_3D('',#267,#268,#269);
#267 = CARTESIAN_POINT('',(3.75,-1.25,0.));
#268 = DIRECTION('',(-0.707106781187,0.707106781187,0.));
#269 = DIRECTION('',(0.707106781187,0.707106781187,0.));
#270 = ADVANCED_FACE('',(#271),#289,.F.);
#271 = FACE_BOUND('',#272,.F.);
#272 = EDGE_LOOP('',(#273,#274,#275,#283));
#273 = ORIENTED_EDGE('',*,*,#219,.T.);
#274 = ORIENTED_EDGE('',*,*,#58,.T.);
#275 = ORIENTED_EDGE('',*,*,#276,.F.);
#276 = EDGE_CURVE('',#277,#59,#279,.T.);
#277 = VERTEX_POINT('',#278);
#278 = CARTESIAN_POINT('',(3.1,1.9,0.));
#279 = LINE('',#280,#281);
#280 = CARTESIAN_POINT('',(3.1,1.9,0.));
#281 = VECTOR('',#282,1.);
#282 = DIRECTION('',(0.,0.,1.));
#283 = ORIENTED_EDGE('',*,*,#284,.F.);
#284 = EDGE_CURVE('',#220,#277,#285,.T.);
#285 = LINE('',#286,#287);
#286 = CARTESIAN_POINT('',(3.75,1.25,0.));
#287 = VECTOR('',#288,1.);
#288 = DIRECTION('',(-0.707106781187,0.707106781187,0.));
#289 = PLANE('',#290);
#290 = AXIS2_PLACEMENT_3D('',#291,#292,#293);
#291 = CARTESIAN_POINT('',(3.75,1.25,0.));
#292 = DIRECTION('',(-0.707106781187,-0.707106781187,0.));
#293 = DIRECTION('',(-0.707106781187,0.707106781187,0.));
#294 = ADVANCED_FACE('',(#295),#313,.F.);
#295 = FACE_BOUND('',#296,.T.);
#296 = EDGE_LOOP('',(#297,#298,#299,#307));
#297 = ORIENTED_EDGE('',*,*,#252,.T.);
#298 = ORIENTED_EDGE('',*,*,#194,.T.);
#299 = ORIENTED_EDGE('',*,*,#300,.F.);
#300 = EDGE_CURVE('',#301,#187,#303,.T.);
#301 = VERTEX_POINT('',#302);
#302 = CARTESIAN_POINT('',(3.1,-3.365,0.));
#303 = LINE('',#304,#305);
#304 = CARTESIAN_POINT('',(3.1,-3.365,0.));
#305 = VECTOR('',#306,1.);
#306 = DIRECTION('',(0.,0.,1.));
#307 = ORIENTED_EDGE('',*,*,#308,.F.);
#308 = EDGE_CURVE('',#253,#301,#309,.T.);
#309 = LINE('',#310,#311);
#310 = CARTESIAN_POINT('',(3.1,-1.9,0.));
#311 = VECTOR('',#312,1.);
#312 = DIRECTION('',(-0.,-1.,-0.));
#313 = PLANE('',#314);
#314 = AXIS2_PLACEMENT_3D('',#315,#316,#317);
#315 = CARTESIAN_POINT('',(3.1,-1.9,0.));
#316 = DIRECTION('',(-1.,-0.,-0.));
#317 = DIRECTION('',(0.,1.,0.));
#318 = ADVANCED_FACE('',(#319),#337,.F.);
#319 = FACE_BOUND('',#320,.F.);
#320 = EDGE_LOOP('',(#321,#322,#323,#331));
#321 = ORIENTED_EDGE('',*,*,#276,.T.);
#322 = ORIENTED_EDGE('',*,*,#66,.T.);
#323 = ORIENTED_EDGE('',*,*,#324,.F.);
#324 = EDGE_CURVE('',#325,#67,#327,.T.);
#325 = VERTEX_POINT('',#326);
#326 = CARTESIAN_POINT('',(3.1,3.365,0.));
#327 = LINE('',#328,#329);
#328 = CARTESIAN_POINT('',(3.1,3.365,0.));
#329 = VECTOR('',#330,1.);
#330 = DIRECTION('',(0.,0.,1.));
#331 = ORIENTED_EDGE('',*,*,#332,.F.);
#332 = EDGE_CURVE('',#277,#325,#333,.T.);
#333 = LINE('',#334,#335);
#334 = CARTESIAN_POINT('',(3.1,1.9,0.));
#335 = VECTOR('',#336,1.);
#336 = DIRECTION('',(0.,1.,0.));
#337 = PLANE('',#338);
#338 = AXIS2_PLACEMENT_3D('',#339,#340,#341);
#339 = CARTESIAN_POINT('',(3.1,1.9,0.));
#340 = DIRECTION('',(-1.,0.,0.));
#341 = DIRECTION('',(0.,1.,0.));
#342 = ADVANCED_FACE('',(#343),#361,.F.);
#343 = FACE_BOUND('',#344,.T.);
#344 = EDGE_LOOP('',(#345,#346,#347,#355));
#345 = ORIENTED_EDGE('',*,*,#300,.T.);
#346 = ORIENTED_EDGE('',*,*,#186,.T.);
#347 = ORIENTED_EDGE('',*,*,#348,.F.);
#348 = EDGE_CURVE('',#349,#179,#351,.T.);
#349 = VERTEX_POINT('',#350);
#350 = CARTESIAN_POINT('',(1.625,-3.365,0.));
#351 = LINE('',#352,#353);
#352 = CARTESIAN_POINT('',(1.625,-3.365,0.));
#353 = VECTOR('',#354,1.);
#354 = DIRECTION('',(0.,0.,1.));
#355 = ORIENTED_EDGE('',*,*,#356,.F.);
#356 = EDGE_CURVE('',#301,#349,#357,.T.);
#357 = LINE('',#358,#359);
#358 = CARTESIAN_POINT('',(3.1,-3.365,0.));
#359 = VECTOR('',#360,1.);
#360 = DIRECTION('',(-1.,-0.,-0.));
#361 = PLANE('',#362);
#362 = AXIS2_PLACEMENT_3D('',#363,#364,#365);
#363 = CARTESIAN_POINT('',(3.1,-3.365,0.));
#364 = DIRECTION('',(0.,1.,0.));
#365 = DIRECTION('',(1.,0.,0.));
#366 = ADVANCED_FACE('',(#367),#385,.F.);
#367 = FACE_BOUND('',#368,.F.);
#368 = EDGE_LOOP('',(#369,#370,#371,#379));
#369 = ORIENTED_EDGE('',*,*,#324,.T.);
#370 = ORIENTED_EDGE('',*,*,#74,.T.);
#371 = ORIENTED_EDGE('',*,*,#372,.F.);
#372 = EDGE_CURVE('',#373,#75,#375,.T.);
#373 = VERTEX_POINT('',#374);
#374 = CARTESIAN_POINT('',(1.625,3.365,0.));
#375 = LINE('',#376,#377);
#376 = CARTESIAN_POINT('',(1.625,3.365,0.));
#377 = VECTOR('',#378,1.);
#378 = DIRECTION('',(0.,0.,1.));
#379 = ORIENTED_EDGE('',*,*,#380,.F.);
#380 = EDGE_CURVE('',#325,#373,#381,.T.);
#381 = LINE('',#382,#383);
#382 = CARTESIAN_POINT('',(3.1,3.365,0.));
#383 = VECTOR('',#384,1.);
#384 = DIRECTION('',(-1.,0.,0.));
#385 = PLANE('',#386);
#386 = AXIS2_PLACEMENT_3D('',#387,#388,#389);
#387 = CARTESIAN_POINT('',(3.1,3.365,0.));
#388 = DIRECTION('',(0.,-1.,0.));
#389 = DIRECTION('',(-1.,0.,0.));
#390 = ADVANCED_FACE('',(#391),#409,.F.);
#391 = FACE_BOUND('',#392,.T.);
#392 = EDGE_LOOP('',(#393,#394,#395,#403));
#393 = ORIENTED_EDGE('',*,*,#348,.T.);
#394 = ORIENTED_EDGE('',*,*,#178,.T.);
#395 = ORIENTED_EDGE('',*,*,#396,.F.);
#396 = EDGE_CURVE('',#397,#171,#399,.T.);
#397 = VERTEX_POINT('',#398);
#398 = CARTESIAN_POINT('',(1.625,-3.5,0.));
#399 = LINE('',#400,#401);
#400 = CARTESIAN_POINT('',(1.625,-3.5,0.));
#401 = VECTOR('',#402,1.);
#402 = DIRECTION('',(0.,0.,1.));
#403 = ORIENTED_EDGE('',*,*,#404,.F.);
#404 = EDGE_CURVE('',#349,#397,#405,.T.);
#405 = LINE('',#406,#407);
#406 = CARTESIAN_POINT('',(1.625,-3.365,0.));
#407 = VECTOR('',#408,1.);
#408 = DIRECTION('',(-0.,-1.,-0.));
#409 = PLANE('',#410);
#410 = AXIS2_PLACEMENT_3D('',#411,#412,#413);
#411 = CARTESIAN_POINT('',(1.625,-3.365,0.));
#412 = DIRECTION('',(-1.,-0.,-0.));
#413 = DIRECTION('',(0.,1.,0.));
#414 = ADVANCED_FACE('',(#415),#433,.F.);
#415 = FACE_BOUND('',#416,.F.);
#416 = EDGE_LOOP('',(#417,#418,#419,#427));
#417 = ORIENTED_EDGE('',*,*,#372,.T.);
#418 = ORIENTED_EDGE('',*,*,#82,.T.);
#419 = ORIENTED_EDGE('',*,*,#420,.F.);
#420 = EDGE_CURVE('',#421,#83,#423,.T.);
#421 = VERTEX_POINT('',#422);
#422 = CARTESIAN_POINT('',(1.625,3.5,0.));
#423 = LINE('',#424,#425);
#424 = CARTESIAN_POINT('',(1.625,3.5,0.));
#425 = VECTOR('',#426,1.);
#426 = DIRECTION('',(0.,0.,1.));
#427 = ORIENTED_EDGE('',*,*,#428,.F.);
#428 = EDGE_CURVE('',#373,#421,#429,.T.);
#429 = LINE('',#430,#431);
#430 = CARTESIAN_POINT('',(1.625,3.365,0.));
#431 = VECTOR('',#432,1.);
#432 = DIRECTION('',(0.,1.,0.));
#433 = PLANE('',#434);
#434 = AXIS2_PLACEMENT_3D('',#435,#436,#437);
#435 = CARTESIAN_POINT('',(1.625,3.365,0.));
#436 = DIRECTION('',(-1.,0.,0.));
#437 = DIRECTION('',(0.,1.,0.));
#438 = ADVANCED_FACE('',(#439),#457,.T.);
#439 = FACE_BOUND('',#440,.T.);
#440 = EDGE_LOOP('',(#441,#442,#443,#451));
#441 = ORIENTED_EDGE('',*,*,#396,.T.);
#442 = ORIENTED_EDGE('',*,*,#170,.F.);
#443 = ORIENTED_EDGE('',*,*,#444,.F.);
#444 = EDGE_CURVE('',#445,#163,#447,.T.);
#445 = VERTEX_POINT('',#446);
#446 = CARTESIAN_POINT('',(-1.625,-3.5,0.));
#447 = LINE('',#448,#449);
#448 = CARTESIAN_POINT('',(-1.625,-3.5,0.));
#449 = VECTOR('',#450,1.);
#450 = DIRECTION('',(0.,0.,1.));
#451 = ORIENTED_EDGE('',*,*,#452,.F.);
#452 = EDGE_CURVE('',#397,#445,#453,.T.);
#453 = LINE('',#454,#455);
#454 = CARTESIAN_POINT('',(1.625,-3.5,0.));
#455 = VECTOR('',#456,1.);
#456 = DIRECTION('',(-1.,-0.,-0.));
#457 = PLANE('',#458);
#458 = AXIS2_PLACEMENT_3D('',#459,#460,#461);
#459 = CARTESIAN_POINT('',(0.,-3.5,0.25));
#460 = DIRECTION('',(-0.,-1.,-0.));
#461 = DIRECTION('',(0.,0.,-1.));
#462 = ADVANCED_FACE('',(#463),#481,.T.);
#463 = FACE_BOUND('',#464,.T.);
#464 = EDGE_LOOP('',(#465,#466,#474,#480));
#465 = ORIENTED_EDGE('',*,*,#420,.F.);
#466 = ORIENTED_EDGE('',*,*,#467,.F.);
#467 = EDGE_CURVE('',#468,#421,#470,.T.);
#468 = VERTEX_POINT('',#469);
#469 = CARTESIAN_POINT('',(-1.625,3.5,0.));
#470 = LINE('',#471,#472);
#471 = CARTESIAN_POINT('',(-1.625,3.5,0.));
#472 = VECTOR('',#473,1.);
#473 = DIRECTION('',(1.,0.,0.));
#474 = ORIENTED_EDGE('',*,*,#475,.T.);
#475 = EDGE_CURVE('',#468,#91,#476,.T.);
#476 = LINE('',#477,#478);
#477 = CARTESIAN_POINT('',(-1.625,3.5,0.));
#478 = VECTOR('',#479,1.);
#479 = DIRECTION('',(0.,0.,1.));
#480 = ORIENTED_EDGE('',*,*,#90,.F.);
#481 = PLANE('',#482);
#482 = AXIS2_PLACEMENT_3D('',#483,#484,#485);
#483 = CARTESIAN_POINT('',(0.,3.5,0.25));
#484 = DIRECTION('',(0.,1.,0.));
#485 = DIRECTION('',(0.,0.,1.));
#486 = ADVANCED_FACE('',(#487),#505,.F.);
#487 = FACE_BOUND('',#488,.F.);
#488 = EDGE_LOOP('',(#489,#497,#498,#499));
#489 = ORIENTED_EDGE('',*,*,#490,.T.);
#490 = EDGE_CURVE('',#491,#155,#493,.T.);
#491 = VERTEX_POINT('',#492);
#492 = CARTESIAN_POINT('',(-1.625,-3.365,0.));
#493 = LINE('',#494,#495);
#494 = CARTESIAN_POINT('',(-1.625,-3.365,0.));
#495 = VECTOR('',#496,1.);
#496 = DIRECTION('',(0.,0.,1.));
#497 = ORIENTED_EDGE('',*,*,#162,.T.);
#498 = ORIENTED_EDGE('',*,*,#444,.F.);
#499 = ORIENTED_EDGE('',*,*,#500,.F.);
#500 = EDGE_CURVE('',#491,#445,#501,.T.);
#501 = LINE('',#502,#503);
#502 = CARTESIAN_POINT('',(-1.625,-3.365,0.));
#503 = VECTOR('',#504,1.);
#504 = DIRECTION('',(0.,-1.,0.));
#505 = PLANE('',#506);
#506 = AXIS2_PLACEMENT_3D('',#507,#508,#509);
#507 = CARTESIAN_POINT('',(-1.625,-3.365,0.));
#508 = DIRECTION('',(1.,0.,0.));
#509 = DIRECTION('',(0.,-1.,0.));
#510 = ADVANCED_FACE('',(#511),#529,.F.);
#511 = FACE_BOUND('',#512,.T.);
#512 = EDGE_LOOP('',(#513,#521,#522,#523));
#513 = ORIENTED_EDGE('',*,*,#514,.T.);
#514 = EDGE_CURVE('',#515,#99,#517,.T.);
#515 = VERTEX_POINT('',#516);
#516 = CARTESIAN_POINT('',(-1.625,3.365,0.));
#517 = LINE('',#518,#519);
#518 = CARTESIAN_POINT('',(-1.625,3.365,0.));
#519 = VECTOR('',#520,1.);
#520 = DIRECTION('',(0.,0.,1.));
#521 = ORIENTED_EDGE('',*,*,#98,.T.);
#522 = ORIENTED_EDGE('',*,*,#475,.F.);
#523 = ORIENTED_EDGE('',*,*,#524,.F.);
#524 = EDGE_CURVE('',#515,#468,#525,.T.);
#525 = LINE('',#526,#527);
#526 = CARTESIAN_POINT('',(-1.625,3.365,0.));
#527 = VECTOR('',#528,1.);
#528 = DIRECTION('',(0.,1.,0.));
#529 = PLANE('',#530);
#530 = AXIS2_PLACEMENT_3D('',#531,#532,#533);
#531 = CARTESIAN_POINT('',(-1.625,3.365,0.));
#532 = DIRECTION('',(1.,0.,0.));
#533 = DIRECTION('',(0.,-1.,0.));
#534 = ADVANCED_FACE('',(#535),#553,.F.);
#535 = FACE_BOUND('',#536,.F.);
#536 = EDGE_LOOP('',(#537,#545,#546,#547));
#537 = ORIENTED_EDGE('',*,*,#538,.T.);
#538 = EDGE_CURVE('',#539,#147,#541,.T.);
#539 = VERTEX_POINT('',#540);
#540 = CARTESIAN_POINT('',(-3.1,-3.365,0.));
#541 = LINE('',#542,#543);
#542 = CARTESIAN_POINT('',(-3.1,-3.365,0.));
#543 = VECTOR('',#544,1.);
#544 = DIRECTION('',(0.,0.,1.));
#545 = ORIENTED_EDGE('',*,*,#154,.T.);
#546 = ORIENTED_EDGE('',*,*,#490,.F.);
#547 = ORIENTED_EDGE('',*,*,#548,.F.);
#548 = EDGE_CURVE('',#539,#491,#549,.T.);
#549 = LINE('',#550,#551);
#550 = CARTESIAN_POINT('',(-3.1,-3.365,0.));
#551 = VECTOR('',#552,1.);
#552 = DIRECTION('',(1.,0.,0.));
#553 = PLANE('',#554);
#554 = AXIS2_PLACEMENT_3D('',#555,#556,#557);
#555 = CARTESIAN_POINT('',(-3.1,-3.365,0.));
#556 = DIRECTION('',(0.,1.,0.));
#557 = DIRECTION('',(1.,0.,0.));
#558 = ADVANCED_FACE('',(#559),#577,.F.);
#559 = FACE_BOUND('',#560,.T.);
#560 = EDGE_LOOP('',(#561,#569,#570,#571));
#561 = ORIENTED_EDGE('',*,*,#562,.T.);
#562 = EDGE_CURVE('',#563,#107,#565,.T.);
#563 = VERTEX_POINT('',#564);
#564 = CARTESIAN_POINT('',(-3.1,3.365,0.));
#565 = LINE('',#566,#567);
#566 = CARTESIAN_POINT('',(-3.1,3.365,0.));
#567 = VECTOR('',#568,1.);
#568 = DIRECTION('',(0.,0.,1.));
#569 = ORIENTED_EDGE('',*,*,#106,.T.);
#570 = ORIENTED_EDGE('',*,*,#514,.F.);
#571 = ORIENTED_EDGE('',*,*,#572,.F.);
#572 = EDGE_CURVE('',#563,#515,#573,.T.);
#573 = LINE('',#574,#575);
#574 = CARTESIAN_POINT('',(-3.1,3.365,0.));
#575 = VECTOR('',#576,1.);
#576 = DIRECTION('',(1.,0.,0.));
#577 = PLANE('',#578);
#578 = AXIS2_PLACEMENT_3D('',#579,#580,#581);
#579 = CARTESIAN_POINT('',(-3.1,3.365,0.));
#580 = DIRECTION('',(-0.,-1.,-0.));
#581 = DIRECTION('',(-1.,0.,0.));
#582 = ADVANCED_FACE('',(#583),#601,.F.);
#583 = FACE_BOUND('',#584,.F.);
#584 = EDGE_LOOP('',(#585,#593,#594,#595));
#585 = ORIENTED_EDGE('',*,*,#586,.T.);
#586 = EDGE_CURVE('',#587,#139,#589,.T.);
#587 = VERTEX_POINT('',#588);
#588 = CARTESIAN_POINT('',(-3.1,-1.9,0.));
#589 = LINE('',#590,#591);
#590 = CARTESIAN_POINT('',(-3.1,-1.9,0.));
#591 = VECTOR('',#592,1.);
#592 = DIRECTION('',(0.,0.,1.));
#593 = ORIENTED_EDGE('',*,*,#146,.T.);
#594 = ORIENTED_EDGE('',*,*,#538,.F.);
#595 = ORIENTED_EDGE('',*,*,#596,.F.);
#596 = EDGE_CURVE('',#587,#539,#597,.T.);
#597 = LINE('',#598,#599);
#598 = CARTESIAN_POINT('',(-3.1,-1.9,0.));
#599 = VECTOR('',#600,1.);
#600 = DIRECTION('',(0.,-1.,0.));
#601 = PLANE('',#602);
#602 = AXIS2_PLACEMENT_3D('',#603,#604,#605);
#603 = CARTESIAN_POINT('',(-3.1,-1.9,0.));
#604 = DIRECTION('',(1.,0.,0.));
#605 = DIRECTION('',(0.,-1.,0.));
#606 = ADVANCED_FACE('',(#607),#625,.F.);
#607 = FACE_BOUND('',#608,.T.);
#608 = EDGE_LOOP('',(#609,#617,#618,#619));
#609 = ORIENTED_EDGE('',*,*,#610,.T.);
#610 = EDGE_CURVE('',#611,#115,#613,.T.);
#611 = VERTEX_POINT('',#612);
#612 = CARTESIAN_POINT('',(-3.1,1.9,0.));
#613 = LINE('',#614,#615);
#614 = CARTESIAN_POINT('',(-3.1,1.9,0.));
#615 = VECTOR('',#616,1.);
#616 = DIRECTION('',(0.,0.,1.));
#617 = ORIENTED_EDGE('',*,*,#114,.T.);
#618 = ORIENTED_EDGE('',*,*,#562,.F.);
#619 = ORIENTED_EDGE('',*,*,#620,.F.);
#620 = EDGE_CURVE('',#611,#563,#621,.T.);
#621 = LINE('',#622,#623);
#622 = CARTESIAN_POINT('',(-3.1,1.9,0.));
#623 = VECTOR('',#624,1.);
#624 = DIRECTION('',(0.,1.,0.));
#625 = PLANE('',#626);
#626 = AXIS2_PLACEMENT_3D('',#627,#628,#629);
#627 = CARTESIAN_POINT('',(-3.1,1.9,0.));
#628 = DIRECTION('',(1.,0.,0.));
#629 = DIRECTION('',(0.,-1.,0.));
#630 = ADVANCED_FACE('',(#631),#649,.F.);
#631 = FACE_BOUND('',#632,.F.);
#632 = EDGE_LOOP('',(#633,#641,#642,#643));
#633 = ORIENTED_EDGE('',*,*,#634,.T.);
#634 = EDGE_CURVE('',#635,#131,#637,.T.);
#635 = VERTEX_POINT('',#636);
#636 = CARTESIAN_POINT('',(-3.75,-1.25,0.));
#637 = LINE('',#638,#639);
#638 = CARTESIAN_POINT('',(-3.75,-1.25,0.));
#639 = VECTOR('',#640,1.);
#640 = DIRECTION('',(0.,0.,1.));
#641 = ORIENTED_EDGE('',*,*,#138,.T.);
#642 = ORIENTED_EDGE('',*,*,#586,.F.);
#643 = ORIENTED_EDGE('',*,*,#644,.F.);
#644 = EDGE_CURVE('',#635,#587,#645,.T.);
#645 = LINE('',#646,#647);
#646 = CARTESIAN_POINT('',(-3.75,-1.25,0.));
#647 = VECTOR('',#648,1.);
#648 = DIRECTION('',(0.707106781187,-0.707106781187,0.));
#649 = PLANE('',#650);
#650 = AXIS2_PLACEMENT_3D('',#651,#652,#653);
#651 = CARTESIAN_POINT('',(-3.75,-1.25,0.));
#652 = DIRECTION('',(0.707106781187,0.707106781187,0.));
#653 = DIRECTION('',(0.707106781187,-0.707106781187,0.));
#654 = ADVANCED_FACE('',(#655),#673,.F.);
#655 = FACE_BOUND('',#656,.T.);
#656 = EDGE_LOOP('',(#657,#665,#666,#667));
#657 = ORIENTED_EDGE('',*,*,#658,.T.);
#658 = EDGE_CURVE('',#659,#123,#661,.T.);
#659 = VERTEX_POINT('',#660);
#660 = CARTESIAN_POINT('',(-3.75,1.25,0.));
#661 = LINE('',#662,#663);
#662 = CARTESIAN_POINT('',(-3.75,1.25,0.));
#663 = VECTOR('',#664,1.);
#664 = DIRECTION('',(0.,0.,1.));
#665 = ORIENTED_EDGE('',*,*,#122,.T.);
#666 = ORIENTED_EDGE('',*,*,#610,.F.);
#667 = ORIENTED_EDGE('',*,*,#668,.F.);
#668 = EDGE_CURVE('',#659,#611,#669,.T.);
#669 = LINE('',#670,#671);
#670 = CARTESIAN_POINT('',(-3.75,1.25,0.));
#671 = VECTOR('',#672,1.);
#672 = DIRECTION('',(0.707106781187,0.707106781187,0.));
#673 = PLANE('',#674);
#674 = AXIS2_PLACEMENT_3D('',#675,#676,#677);
#675 = CARTESIAN_POINT('',(-3.75,1.25,0.));
#676 = DIRECTION('',(0.707106781187,-0.707106781187,0.));
#677 = DIRECTION('',(-0.707106781187,-0.707106781187,-0.));
#678 = ADVANCED_FACE('',(#679),#690,.T.);
#679 = FACE_BOUND('',#680,.T.);
#680 = EDGE_LOOP('',(#681,#682,#688,#689));
#681 = ORIENTED_EDGE('',*,*,#658,.F.);
#682 = ORIENTED_EDGE('',*,*,#683,.T.);
#683 = EDGE_CURVE('',#659,#635,#684,.T.);
#684 = LINE('',#685,#686);
#685 = CARTESIAN_POINT('',(-3.75,0.,0.));
#686 = VECTOR('',#687,1.);
#687 = DIRECTION('',(0.,-1.,0.));
#688 = ORIENTED_EDGE('',*,*,#634,.T.);
#689 = ORIENTED_EDGE('',*,*,#130,.T.);
#690 = PLANE('',#691);
#691 = AXIS2_PLACEMENT_3D('',#692,#693,#694);
#692 = CARTESIAN_POINT('',(-3.75,0.,0.25));
#693 = DIRECTION('',(-1.,-0.,-0.));
#694 = DIRECTION('',(0.,0.,-1.));
#695 = ADVANCED_FACE('',(#696),#718,.T.);
#696 = FACE_BOUND('',#697,.T.);
#697 = EDGE_LOOP('',(#698,#699,#700,#701,#702,#703,#704,#705,#706,#707,
    #708,#709,#710,#711,#712,#713,#714,#715,#716,#717));
#698 = ORIENTED_EDGE('',*,*,#236,.T.);
#699 = ORIENTED_EDGE('',*,*,#260,.T.);
#700 = ORIENTED_EDGE('',*,*,#308,.T.);
#701 = ORIENTED_EDGE('',*,*,#356,.T.);
#702 = ORIENTED_EDGE('',*,*,#404,.T.);
#703 = ORIENTED_EDGE('',*,*,#452,.T.);
#704 = ORIENTED_EDGE('',*,*,#500,.F.);
#705 = ORIENTED_EDGE('',*,*,#548,.F.);
#706 = ORIENTED_EDGE('',*,*,#596,.F.);
#707 = ORIENTED_EDGE('',*,*,#644,.F.);
#708 = ORIENTED_EDGE('',*,*,#683,.F.);
#709 = ORIENTED_EDGE('',*,*,#668,.T.);
#710 = ORIENTED_EDGE('',*,*,#620,.T.);
#711 = ORIENTED_EDGE('',*,*,#572,.T.);
#712 = ORIENTED_EDGE('',*,*,#524,.T.);
#713 = ORIENTED_EDGE('',*,*,#467,.T.);
#714 = ORIENTED_EDGE('',*,*,#428,.F.);
#715 = ORIENTED_EDGE('',*,*,#380,.F.);
#716 = ORIENTED_EDGE('',*,*,#332,.F.);
#717 = ORIENTED_EDGE('',*,*,#284,.F.);
#718 = PLANE('',#719);
#719 = AXIS2_PLACEMENT_3D('',#720,#721,#722);
#720 = CARTESIAN_POINT('',(1.1E-16,-3.E-16,0.));
#721 = DIRECTION('',(-0.,-0.,-1.));
#722 = DIRECTION('',(-1.,0.,0.));
#723 = ( GEOMETRIC_REPRESENTATION_CONTEXT(3) 
GLOBAL_UNCERTAINTY_ASSIGNED_CONTEXT((#727)) GLOBAL_UNIT_ASSIGNED_CONTEXT
((#724,#725,#726)) REPRESENTATION_CONTEXT('Context #1',
  '3D Context with UNIT and UNCERTAINTY') );
#724 = ( LENGTH_UNIT() NAMED_UNIT(*) SI_UNIT(.MILLI.,.METRE.) );
#725 = ( NAMED_UNIT(*) PLANE_ANGLE_UNIT() SI_UNIT($,.RADIAN.) );
#726 = ( NAMED_UNIT(*) SI_UNIT($,.STERADIAN.) SOLID_ANGLE_UNIT() );
#727 = UNCERTAINTY_MEASURE_WITH_UNIT(LENGTH_MEASURE(1.E-07),#724,
  'distance_accuracy_value','confusion accuracy');
#728 = PRODUCT_RELATED_PRODUCT_CATEGORY('part',$,(#7));
#729 = MECHANICAL_DESIGN_GEOMETRIC_PRESENTATION_REPRESENTATION('',(#730)
  ,#723);
#730 = STYLED_ITEM('color',(#731),#15);
#731 = PRESENTATION_STYLE_ASSIGNMENT((#732,#738));
#732 = SURFACE_STYLE_USAGE(.BOTH.,#733);
#733 = SURFACE_SIDE_STYLE('',(#734));
#734 = SURFACE_STYLE_FILL_AREA(#735);
#735 = FILL_AREA_STYLE('',(#736));
#736 = FILL_AREA_STYLE_COLOUR('',#737);
#737 = COLOUR_RGB('',0.447058818107,0.474509808674,0.501960817233);
#738 = CURVE_STYLE('',#739,POSITIVE_LENGTH_MEASURE(0.1),#740);
#739 = DRAUGHTING_PRE_DEFINED_CURVE_FONT('continuous');
#740 = COLOUR_RGB('',9.803921802644E-02,9.803921802644E-02,
  9.803921802644E-02);
ENDSEC;
END-ISO-10303-21;
